<svg width="50" height="50" viewBox="0 0 50 50" fill="none" xmlns="http://www.w3.org/2000/svg">
<path d="M23.4375 8.94041V14.0625H26.5625V8.94022C27.4919 8.39815 28.125 7.40156 28.125 6.25C28.125 4.52652 26.7227 3.125 25 3.125C23.2765 3.125 21.875 4.52652 21.875 6.25C21.875 7.40175 22.508 8.39844 23.4375 8.94041Z" fill="#4CA3E0"/>
<path d="M12.5 8.94041V10.9375C12.5 11.8004 13.1996 12.5 14.0625 12.5H18.75V14.0625H21.875V10.9375C21.875 10.0746 21.1754 9.375 20.3125 9.375H15.625V8.94041C16.5545 8.39844 17.1875 7.40175 17.1875 6.25C17.1875 4.52652 15.786 3.125 14.0625 3.125C12.339 3.125 10.9375 4.52652 10.9375 6.25C10.9375 7.40175 11.5705 8.39844 12.5 8.94041Z" fill="#4CA3E0"/>
<path d="M8.94041 26.5625H14.0625V23.4375H8.94041C8.39844 22.508 7.40175 21.875 6.25 21.875C4.52652 21.875 3.125 23.2765 3.125 25C3.125 26.7235 4.52652 28.125 6.25 28.125C7.40175 28.125 8.39844 27.492 8.94041 26.5625Z" fill="#4CA3E0"/>
<path d="M9.375 34.8096V32.8125H14.0625V29.6875H7.8125C6.94962 29.6875 6.25 30.3871 6.25 31.25V34.8096C5.32045 35.3516 4.6875 36.3482 4.6875 37.5C4.6875 39.2235 6.08902 40.625 7.8125 40.625C9.53598 40.625 10.9375 39.2235 10.9375 37.5C10.9375 36.3482 10.3045 35.3516 9.375 34.8096Z" fill="#4CA3E0"/>
<path d="M6.25 15.1904V18.75C6.25 19.6129 6.94962 20.3125 7.8125 20.3125H14.0625V17.1875H9.375V15.1904C10.3045 14.6484 10.9375 13.6518 10.9375 12.5C10.9375 10.7765 9.53598 9.375 7.8125 9.375C6.08902 9.375 4.6875 10.7765 4.6875 12.5C4.6875 13.6518 5.32045 14.6484 6.25 15.1904Z" fill="#4CA3E0"/>
<path d="M43.75 21.875C42.5988 21.875 41.6019 22.508 41.0597 23.4375H35.9375V26.5625H41.0597C41.6019 27.492 42.5988 28.125 43.75 28.125C45.4727 28.125 46.875 26.7235 46.875 25C46.875 23.2765 45.4727 21.875 43.75 21.875Z" fill="#4CA3E0"/>
<path d="M40.625 15.1902V17.1875H35.9375V20.3125H42.1875C43.0511 20.3125 43.75 19.6129 43.75 18.75V15.1902C44.6794 14.6482 45.3125 13.6516 45.3125 12.5C45.3125 10.7765 43.9102 9.375 42.1875 9.375C40.4648 9.375 39.0625 10.7765 39.0625 12.5C39.0625 13.6516 39.6956 14.6482 40.625 15.1902Z" fill="#4CA3E0"/>
<path d="M43.75 34.8098V31.25C43.75 30.3871 43.0511 29.6875 42.1875 29.6875H35.9375V32.8125H40.625V34.8098C39.6956 35.3518 39.0625 36.3484 39.0625 37.5C39.0625 39.2235 40.4648 40.625 42.1875 40.625C43.9102 40.625 45.3125 39.2235 45.3125 37.5C45.3125 36.3484 44.6794 35.3518 43.75 34.8098Z" fill="#4CA3E0"/>
<path d="M28.125 14.0625H31.25V12.5H35.9375C36.8011 12.5 37.5 11.8004 37.5 10.9375V8.94022C38.4294 8.39815 39.0625 7.40156 39.0625 6.25C39.0625 4.52652 37.6602 3.125 35.9375 3.125C34.2148 3.125 32.8125 4.52652 32.8125 6.25C32.8125 7.40156 33.4456 8.39815 34.375 8.94022V9.375H29.6875C28.8239 9.375 28.125 10.0746 28.125 10.9375V14.0625Z" fill="#4CA3E0"/>
<path d="M26.5625 41.0598V35.9375H23.4375V41.0596C22.508 41.6016 21.875 42.5982 21.875 43.75C21.875 45.4735 23.2765 46.875 25 46.875C26.7227 46.875 28.125 45.4735 28.125 43.75C28.125 42.5984 27.4919 41.6018 26.5625 41.0598Z" fill="#4CA3E0"/>
<path d="M21.875 35.9375H18.75V37.5H14.0625C13.1996 37.5 12.5 38.1996 12.5 39.0625V41.0596C11.5705 41.6016 10.9375 42.5982 10.9375 43.75C10.9375 45.4735 12.339 46.875 14.0625 46.875C15.786 46.875 17.1875 45.4735 17.1875 43.75C17.1875 42.5982 16.5545 41.6016 15.625 41.0596V40.625H20.3125C21.1754 40.625 21.875 39.9254 21.875 39.0625V35.9375Z" fill="#4CA3E0"/>
<path d="M37.5 41.0598V39.0625C37.5 38.1996 36.8011 37.5 35.9375 37.5H31.25V35.9375H28.125V39.0625C28.125 39.9254 28.8239 40.625 29.6875 40.625H34.375V41.0598C33.4456 41.6018 32.8125 42.5984 32.8125 43.75C32.8125 45.4735 34.2148 46.875 35.9375 46.875C37.6602 46.875 39.0625 45.4735 39.0625 43.75C39.0625 42.5984 38.4294 41.6018 37.5 41.0598Z" fill="#4CA3E0"/>
<path d="M32.8125 34.375H17.1875C16.3246 34.375 15.625 33.6754 15.625 32.8125V17.1875C15.625 16.3246 16.3246 15.625 17.1875 15.625H32.8125C33.6754 15.625 34.375 16.3246 34.375 17.1875V32.8125C34.375 33.6754 33.6754 34.375 32.8125 34.375Z" fill="#4CA3E0"/>
</svg>
