<svg width="50" height="50" viewBox="0 0 50 50" fill="none" xmlns="http://www.w3.org/2000/svg">
<path d="M4.6875 17.1875H45.3125" stroke="#4CA3E0" stroke-width="2" stroke-miterlimit="10" stroke-linecap="round" stroke-linejoin="round"/>
<path d="M11.0714 14.2857C10.5357 14.2857 10.1786 14.1071 9.82143 13.75C9.46428 13.3929 9.28571 13.0357 9.28571 12.5C9.28571 11.9643 9.46428 11.6071 9.82143 11.25L10 11.0714C10.1786 11.0714 10.1786 10.8929 10.3571 10.8929C10.5357 10.7143 10.5357 10.7143 10.7143 10.7143C10.8929 10.7143 11.25 10.7143 11.4286 10.7143C11.6071 10.7143 11.6071 10.7143 11.7857 10.8929C11.9643 10.8929 11.9643 11.0714 12.1429 11.0714L12.3214 11.25C12.5 11.4286 12.6786 11.6071 12.6786 11.7857C12.8571 11.9643 12.8571 12.3214 12.8571 12.5C12.8571 12.6786 12.8571 13.0357 12.6786 13.2143C12.6786 13.3929 12.5 13.5714 12.3214 13.75C11.9643 14.1071 11.6071 14.2857 11.0714 14.2857Z" fill="#4CA3E0"/>
<path d="M15.3571 14.2857C14.8214 14.2857 14.4643 14.1075 14.1071 13.7511C13.75 13.3947 13.5714 13.0382 13.5714 12.5036C13.5714 12.3254 13.5714 11.969 13.75 11.7908C13.9286 11.6126 13.9286 11.4343 14.1071 11.2561C14.2857 11.0779 14.4643 10.8997 14.6429 10.8997C15.3571 10.5433 16.0714 10.7215 16.6071 11.2561C16.7857 11.4343 16.9643 11.6126 16.9643 11.7908C17.1429 11.969 17.1429 12.3254 17.1429 12.5036C17.1429 13.0382 16.9643 13.3947 16.6071 13.7511C16.25 14.1075 15.8929 14.2857 15.3571 14.2857Z" fill="#4CA3E0"/>
<path d="M19.6429 14.2857C19.4643 14.2857 19.1071 14.2857 18.9286 14.1071C18.75 13.9286 18.5714 13.9286 18.3929 13.75C18.2143 13.5714 18.0357 13.3929 18.0357 13.2143C17.8571 13.0357 17.8571 12.6786 17.8571 12.5C17.8571 12.3214 17.8571 11.9643 18.0357 11.7857C18.2143 11.6071 18.2143 11.4286 18.3929 11.25C19.1071 10.5357 20.1786 10.5357 20.8929 11.25C21.0714 11.4286 21.25 11.6071 21.25 11.7857C21.4286 11.9643 21.4286 12.3214 21.4286 12.5C21.4286 12.6786 21.4286 13.0357 21.25 13.2143C21.0714 13.3929 21.0714 13.5714 20.8929 13.75C20.5357 14.1071 20.1786 14.2857 19.6429 14.2857Z" fill="#4CA3E0"/>
<path d="M42.1875 7.8125H7.8125C6.09375 7.8125 4.6875 9.21875 4.6875 10.9375V39.0625C4.6875 40.7813 6.09375 42.1875 7.8125 42.1875H42.1875C43.9063 42.1875 45.3125 40.7813 45.3125 39.0625V10.9375C45.3125 9.21875 43.9063 7.8125 42.1875 7.8125Z" stroke="#4CA3E0" stroke-width="4" stroke-miterlimit="10" stroke-linecap="round" stroke-linejoin="round"/>
<path d="M17.1875 25L12.5 29.6875L17.1875 34.375" stroke="#4CA3E0" stroke-width="4" stroke-miterlimit="10" stroke-linecap="round" stroke-linejoin="round"/>
<path d="M32.8125 25L37.5 29.6875L32.8125 34.375" stroke="#4CA3E0" stroke-width="4" stroke-miterlimit="10" stroke-linecap="round" stroke-linejoin="round"/>
<path d="M28.125 23.4375L21.875 35.9375" stroke="#4CA3E0" stroke-width="4" stroke-miterlimit="10" stroke-linecap="round" stroke-linejoin="round"/>
</svg>
