<svg width="30" height="30" viewBox="0 0 30 30" fill="none" xmlns="http://www.w3.org/2000/svg">
<path d="M26 2H4.4C3.074 2 2 3.074 2 4.4V26C2 27.326 3.074 28.4 4.4 28.4H26C27.326 28.4 28.4 27.326 28.4 26V4.4C28.4 3.074 27.326 2 26 2ZM10.3448 23.6H6.8048V12.2096H10.3448V23.6ZM8.5388 10.5812C7.3976 10.5812 6.4748 9.656 6.4748 8.5172C6.4748 7.3784 7.3988 6.4544 8.5388 6.4544C9.6764 6.4544 10.6016 7.3796 10.6016 8.5172C10.6016 9.656 9.6764 10.5812 8.5388 10.5812ZM23.6048 23.6H20.0672V18.0608C20.0672 16.7396 20.0432 15.0404 18.2276 15.0404C16.3856 15.0404 16.1024 16.4792 16.1024 17.9648V23.6H12.5648V12.2096H15.9608V13.766H16.0088C16.4816 12.8708 17.636 11.9264 19.358 11.9264C22.9424 11.9264 23.6048 14.2856 23.6048 17.3528V23.6Z" fill="#F5F5F5"/>
</svg>
