<svg width="50" height="42" viewBox="0 0 50 42" fill="none" xmlns="http://www.w3.org/2000/svg">
<g clip-path="url(#clip0_2108_90)">
<path fill-rule="evenodd" clip-rule="evenodd" d="M25 30.3333C20.8579 30.3333 17.5 27.1993 17.5 23.3333C17.5 19.4673 20.8579 16.3333 25 16.3333C29.1421 16.3333 32.5 19.4673 32.5 23.3333C32.5 27.1993 29.1421 30.3333 25 30.3333ZM45 4.66667C47.75 4.66667 50 6.76667 50 9.33333V37.3333C50 39.9 47.75 42 45 42H5C2.25 42 0 39.9 0 37.3333V9.33333C0 6.76667 2.25 4.66667 5 4.66667H12.925L16 1.51667C16.95 0.56 18.3 0 19.7 0H30.3C31.7 0 33.05 0.56 33.975 1.51667L37.075 4.66667H45ZM25 35C31.9 35 37.5 29.7733 37.5 23.3333C37.5 16.8933 31.9 11.6667 25 11.6667C18.1 11.6667 12.5 16.8933 12.5 23.3333C12.5 29.7733 18.1 35 25 35Z" fill="#4CA3E0"/>
</g>
<defs>
<clipPath id="clip0_2108_90">
<rect width="50" height="42" fill="white"/>
</clipPath>
</defs>
</svg>
